<svg xmlns="http://www.w3.org/2000/svg" viewBox="0 0 512 512" width="100%" height="100%">
  <!-- Box Base -->
  <rect x="64" y="192" width="384" height="256" rx="16" ry="16" fill="#F06292" stroke="#D81B60" stroke-width="8"/>
  
  <!-- Box Lid -->
  <rect x="96" y="128" width="320" height="96" rx="16" ry="16" fill="#F48FB1" stroke="#D81B60" stroke-width="8"/>
  
  <!-- Box Ribbon Vertical -->
  <rect x="232" y="128" width="48" height="320" fill="#9C27B0" stroke="#7B1FA2" stroke-width="4"/>
  
  <!-- Box Ribbon Horizontal -->
  <rect x="64" y="224" width="384" height="48" fill="#9C27B0" stroke="#7B1FA2" stroke-width="4"/>
  
  <!-- Ribbon Bow Left -->
  <path d="M232,128 Q192,64 152,128 Q192,164 232,128" fill="#CE93D8" stroke="#9C27B0" stroke-width="4"/>
  
  <!-- Ribbon Bow Right -->
  <path d="M280,128 Q320,64 360,128 Q320,164 280,128" fill="#CE93D8" stroke="#9C27B0" stroke-width="4"/>
  
  <!-- Shine Effect -->
  <circle cx="128" cy="236" r="20" fill="white" opacity="0.5"/>
  <circle cx="96" cy="288" r="12" fill="white" opacity="0.3"/>
  
  <!-- Sparkles -->
  <path d="M400,160 L410,150 L420,160 L410,170 Z" fill="yellow" stroke="gold" stroke-width="2"/>
  <path d="M112,160 L122,150 L132,160 L122,170 Z" fill="yellow" stroke="gold" stroke-width="2"/>
  <path d="M380,400 L390,390 L400,400 L390,410 Z" fill="yellow" stroke="gold" stroke-width="2"/>
</svg>
